<svg id="Calque_1" data-name="Calque 1" xmlns="http://www.w3.org/2000/svg" viewBox="0 0 376.64 374.17"><defs><style>.cls-1{fill:#fffdeb;}.cls-1,.cls-2{fill-rule:evenodd;}.cls-2{fill:#e08418;fill-opacity:0.22;opacity:0.5;isolation:isolate;}</style></defs><path class="cls-1" d="M124.07-252.11q4.41-1.86,8.92-3.27c1.22-.38,2.43-.73,3.66-1.07A104.48,104.48,0,0,1,214.43-247L324.6-186.23A138.4,138.4,0,0,1,396.22-55.1c-.09,1.17-.18,2.35-.3,3.53A137.4,137.4,0,0,1,376.38,6.6,162.59,162.59,0,0,1,358.25,31c-.84.94-1.7,1.86-2.56,2.77-19.34,20.52-41.56,33.6-62.32,44.91-1.2.65-2.4,1.3-3.59,2-20,10.84-38.43,20.3-51.14,33.61-.84.88-1.65,1.78-2.46,2.7s-1.47,1.76-2.18,2.66c-16.09,20.73-25.33,41.08-34.3,61.53-.54,1.23-1.1,2.48-1.63,3.71-8.25,18.8-16.61,37.74-30.2,57.2-.71,1-1.44,2-2.2,3.07a232.12,232.12,0,0,1-38.5,41.05c-1.43,1.22-2.85,2.39-4.24,3.52-1.17.95-2.34,1.87-3.49,2.76a182.7,182.7,0,0,1-49.63,27.78c-1.46.55-2.91,1.09-4.33,1.6-19.9,7.18-35,10.58-46.08,25.27-.84,1.08-1.63,2.25-2.41,3.48-5.23,8.16-9.51,19.38-12.94,35.52-.65,3.09-1.4,6.08-2.22,9-.35,1.21-.7,2.41-1.09,3.57A105,105,0,0,1-15,429.89c-.83,1.12-1.67,2.2-2.54,3.25A87.93,87.93,0,0,1-37.07,451c-1.14.76-2.29,1.49-3.45,2.18-22.67,13.56-48,14.76-63.41,9.48a35.25,35.25,0,0,1-3.77-1.53c-.53-.24-1-.5-1.52-.76-14.56-7.83-21.45-16.65-22-28.44a30.58,30.58,0,0,1,.09-4.47c.83-10.44,6-23.13,14.62-39.15.57-1.06,1.15-2.13,1.76-3.22h0c6.46-11.67,14.68-25.06,24.36-40.59a339.64,339.64,0,0,0,18.8-33.79c.52-1.1,1-2.19,1.52-3.26,8.12-17.75,11.95-32.12,13.24-44.76q.21-2.1.33-4.14c.88-14.19-1.37-26.35-4-39.08-.23-1.16-.47-2.34-.71-3.52-3.16-15.14-6.48-31.36-5.51-53,.06-1.42.14-2.89.24-4.36.4-5.68,1.09-11.75,2.16-18.24a241.48,241.48,0,0,1,5.38-24.8c.37-1.35.75-2.69,1.14-4,7.26-24.71,17.61-44,28.91-61.33.68-1,1.35-2.08,2-3.1C-18,33.79-8.62,21.54.22,8.69,1,7.56,1.77,6.41,2.54,5.29A237.25,237.25,0,0,0,24.34-33.6c.55-1.27,1.09-2.54,1.61-3.85.36-.85.7-1.7,1-2.56,6.34-16.25,10.14-39,14.67-63.7.22-1.21.44-2.41.67-3.63,4.1-22.16,8.92-45.76,16.74-67.65.42-1.17.85-2.34,1.29-3.5C72.37-210.4,91.15-238.27,124.07-252.11Z"/><path class="cls-2" d="M233.42-147.68q16.44-24.51,33.1-48.15c-19.11,7-38.11,7.94-56.55,2.81-16.34-4.55-32.29-13.86-47.37-27.7A201,201,0,0,1,133-255.4c1.22-.38,2.43-.73,3.66-1.07a194.51,194.51,0,0,0,28.41,33.12c33.05,30.27,68.45,37.73,105.22,22.2q3.85-5.43,7.71-10.8l3.58,2q-9.18,12.72-18.28,25.78c27.54,77,67.06,107.74,95.36,120a110.07,110.07,0,0,0,37.59,9.1c-.09,1.17-.18,2.35-.3,3.53a113,113,0,0,1-38.76-9.33C338.47-69,321.26-82,306.05-99.56c-18-20.78-33.22-48-45.28-81q-9.45,13.59-18.83,27.48C245.79-70.12,283.4-22.2,314.34,3.41a198.94,198.94,0,0,0,43.93,27.53c-.84.95-1.7,1.87-2.56,2.78A202.64,202.64,0,0,1,312.13,6.28a194.33,194.33,0,0,1-48.66-60.07c-14.33-27.44-22.68-59.14-24.89-94.3-15.59,23.18-31,46.88-46.15,70.76,0,.08,0,.15.07.24C203.54-9,239.1,34.36,267,58.73a232,232,0,0,0,26.39,19.91l-3.58,2a233.7,233.7,0,0,1-25.1-19.08C236.84,37.21,201.47-5.71,189.58-72.81q-14.34,22.68-28.27,45.47c-7.47,48.44,11.2,90.9,55.53,126.18a237.1,237.1,0,0,0,21.82,15.36q-1.24,1.32-2.46,2.7a235.36,235.36,0,0,1-21.64-15.26c-20-15.9-35.09-33.67-44.89-52.8a122.39,122.39,0,0,1-12.94-68.66C134.19,17.19,112.55,54,92.27,89.51c48.3,58.23,83.75,81.41,105,90.59.82.35,1.63.69,2.43,1-.54,1.23-1.1,2.48-1.63,3.71l-1.74-.73C165.43,171,128.74,139.6,90.13,93.28q-14.07,24.66-27.24,48.3c30.48,58.65,67,84.33,92.33,95.57A133.69,133.69,0,0,0,167.9,242c-.71,1-1.44,2-2.2,3.07-3.81-1.28-7.81-2.81-12-4.66-25.54-11.33-62.19-37-92.93-95.07Q50.39,164,40.66,181.82c19.34,54,46,82.48,65,96.84a119.7,119.7,0,0,0,17.35,11c-1.17.95-2.34,1.87-3.49,2.76a126.64,126.64,0,0,1-16.36-10.56c-19-14.38-45.5-42.51-65.06-95.27l-5,9.23q-11.34,20.87-22,40.94C13.81,271.17,35.55,295,53.4,309A157.82,157.82,0,0,0,69.84,320.2c-1.47.55-2.91,1.09-4.33,1.6a162.14,162.14,0,0,1-14.3-10C33.71,298.15,12.57,275.27,8,242.43-.11,257.59-7.89,272.36-15.33,286.6-5.68,317.68,8,336.24,19.42,347.07c-.83,1.09-1.63,2.25-2.41,3.48C5.58,339.86-8,321.74-18,291.68c-10.46,20.07-20.25,39.11-29.26,56.79,1.61,18.29,28.1,35.61,49.09,46.55-.35,1.21-.7,2.41-1.09,3.57-20-10.33-45.28-26.63-50.67-44.88q-4.82,9.45-9.3,18.36c7.67,29.61,28.74,47.94,44.26,57.83-.82,1.12-1.66,2.21-2.53,3.25-2.71-1.74-5.58-3.72-8.51-6-12.47-9.53-28.41-25.7-35.92-49.74q-7.18,14.3-13.47,26.94C-72.14,426.1-50.57,442.61-37,451c-1.15.76-2.29,1.49-3.46,2.18-13.09-8.25-32.15-23.31-37.48-43.48-11.16,22.52-20,40.58-25.92,53a36.11,36.11,0,0,1-3.77-1.52c3.43-7.12,7.79-16.12,13-26.79-16.74,4.91-28.9,1.63-36.52-2.41a32.15,32.15,0,0,1,.08-4.48c7,4.31,19.83,8.61,38.92,1.83C-86.1,416.9-79,402.57-71,386.55c-14.84,7.71-33.9,4.76-45.48,1.72.58-1,1.15-2.12,1.76-3.21h0c12.43,3.18,33,6,46.82-4.72q2.25-4.5,4.61-9.17a4,4,0,0,1,.21-.41c9.38-18.63,19.84-39.12,31.2-61.11-15.34,8.61-29.55,5.78-39.68,1,.52-1.1,1-2.19,1.52-3.27,14.48,6.84,28.41,5.43,41.49-4.18q4.5-8.7,9.2-17.68s0-.1.06-.13q7.4-14.16,15.22-29a86.47,86.47,0,0,1-52.75,6.2c.14-1.4.25-2.78.34-4.14,14.32,3,34,3.13,55.57-8.06,8.65-16.32,17.67-33.17,27-50.4-26.37,17.6-63.46,20.11-86.58,19.39-.24-1.16-.47-2.34-.72-3.52,24.1.82,65.47-1.93,91.35-23.34q7.95-14.64,16.41-30c-57.1,18.47-94,9.38-113.27.34.06-1.42.14-2.88.24-4.35,18.47,9.14,56,19.25,115.88-1.18q9.49-17.14,19.51-35c-45.39,18.59-85.23,10.85-111,.78a168,168,0,0,1-16.79-7.64c.37-1.35.75-2.69,1.13-4a163.7,163.7,0,0,0,17.31,7.94c26,10.11,66.56,17.78,112.65-2.88Q79.87,103,87.82,89.11a1.86,1.86,0,0,1,.42-.75q4.53-7.94,9.15-16c-39,20.34-72.73,11.73-94.62.48A137.73,137.73,0,0,1-28.86,50.21l2-3.1A135,135,0,0,0,4.56,69.77c32,16.4,64.37,15.27,96.28-3.36q10.23-17.67,20.82-35.67c-38.11,16.28-72,6.87-94.11-4.29A154.13,154.13,0,0,1,.21,8.7C1,7.56,1.75,6.42,2.52,5.29a150.38,150.38,0,0,0,27,17.62c32.42,16.3,64.61,16.91,95.71,1.79q8.27-14,16.72-28C97.57,2.82,61-11.57,37.86-25c-4.92-2.86-9.43-5.76-13.53-8.62.55-1.26,1.09-2.53,1.61-3.85,4.25,3,9,6.08,14.12,9.05C63.17-15,100-.65,144.66-7.83c19.66-32.58,40.07-65.41,60.93-97.67-17.46,12-37.57,19.21-59.93,21.37-20.8,2-43.54-.29-67.63-6.82a279.43,279.43,0,0,1-36.41-12.79c.22-1.2.44-2.41.67-3.62a274.67,274.67,0,0,0,36.81,13c36.9,10,89.7,14.64,132.13-19.82q9.63-14.8,19.38-29.39c-65.07,10.67-114.72-3.33-145.15-17.16A216.89,216.89,0,0,1,59-175c.41-1.17.84-2.35,1.28-3.51a212.39,212.39,0,0,0,26.85,14.58C117.67-150.13,167.71-136.15,233.42-147.68Z"/></svg>