<svg id="Calque_1" data-name="Calque 1" xmlns="http://www.w3.org/2000/svg" viewBox="0 0 376.64 374.17"><defs><style>.cls-1{fill:#f4ffdf;}.cls-1,.cls-2{fill-rule:evenodd;}.cls-2{fill:#23692a;fill-opacity:0.22;opacity:0.5;isolation:isolate;}</style></defs><path class="cls-1" d="M124.07-248.51c2.94-1.25,5.92-2.33,8.92-3.27,1.22-.38,2.43-.74,3.66-1.07a104.43,104.43,0,0,1,77.78,9.47L324.6-182.64A138.41,138.41,0,0,1,396.22-51.51c-.09,1.17-.18,2.36-.3,3.53a137.35,137.35,0,0,1-19.54,58.17,161.57,161.57,0,0,1-18.13,24.35c-.84,1-1.7,1.86-2.56,2.78-19.34,20.51-41.56,33.6-62.32,44.9l-3.59,2c-20,10.84-38.43,20.3-51.14,33.61-.84.88-1.65,1.78-2.46,2.7s-1.47,1.76-2.18,2.66c-16.09,20.74-25.33,41.08-34.3,61.54-.54,1.22-1.1,2.47-1.63,3.7-8.25,18.81-16.61,37.74-30.2,57.2-.71,1-1.44,2-2.2,3.08a232.09,232.09,0,0,1-38.5,41c-1.43,1.23-2.85,2.4-4.24,3.52-1.17,1-2.34,1.87-3.49,2.76a182.43,182.43,0,0,1-49.63,27.78c-1.46.56-2.91,1.09-4.33,1.61-19.9,7.18-35,10.57-46.08,25.27-.84,1.08-1.63,2.24-2.41,3.47-5.23,8.16-9.51,19.39-12.94,35.53-.65,3.09-1.4,6.07-2.22,9-.35,1.21-.7,2.4-1.09,3.56A105,105,0,0,1-15,433.48c-.83,1.13-1.67,2.21-2.54,3.26a87.88,87.88,0,0,1-19.57,17.8c-1.14.76-2.29,1.5-3.45,2.18-22.67,13.56-48,14.76-63.41,9.48a35.25,35.25,0,0,1-3.77-1.52c-.53-.25-1-.5-1.52-.76-14.56-7.84-21.45-16.65-22-28.44a30.74,30.74,0,0,1,.09-4.48c.83-10.44,6-23.12,14.62-39.14.57-1.06,1.15-2.13,1.76-3.22h0C-108.27,377-100,363.56-90.37,348a339.59,339.59,0,0,0,18.8-33.78c.52-1.1,1-2.19,1.52-3.27,8.12-17.75,11.95-32.12,13.24-44.76q.21-2.1.33-4.14c.88-14.19-1.37-26.35-4-39.07-.23-1.17-.47-2.34-.71-3.52-3.16-15.14-6.48-31.37-5.51-53,.06-1.42.14-2.89.24-4.35.4-5.68,1.09-11.76,2.16-18.24a241.69,241.69,0,0,1,5.38-24.81c.37-1.35.75-2.69,1.14-4,7.26-24.72,17.61-44,28.91-61.34.68-1,1.35-2.07,2-3.09C-18,37.38-8.62,25.14.22,12.29,1,11.15,1.77,10,2.54,8.88A237.25,237.25,0,0,0,24.34-30c.55-1.26,1.09-2.53,1.61-3.84.36-.85.7-1.7,1-2.57,6.34-16.24,10.14-39,14.67-63.7.22-1.2.44-2.41.67-3.62,4.1-22.16,8.92-45.76,16.74-67.66.42-1.16.85-2.34,1.29-3.5C72.37-206.81,91.15-234.68,124.07-248.51Z"/><path class="cls-2" d="M233.42-144.09q16.44-24.49,33.1-48.14c-19.11,7-38.11,7.94-56.55,2.8-16.34-4.55-32.29-13.86-47.37-27.7A201.35,201.35,0,0,1,133-251.8c1.22-.38,2.43-.74,3.66-1.07a195.28,195.28,0,0,0,28.41,33.12c33.05,30.26,68.45,37.72,105.22,22.2q3.85-5.43,7.71-10.8l3.58,2q-9.18,12.72-18.28,25.79c27.54,77,67.06,107.73,95.36,120a110,110,0,0,0,37.59,9.09c-.09,1.17-.18,2.36-.3,3.53a113,113,0,0,1-38.76-9.33c-18.72-8.11-35.93-21.1-51.14-38.65-18-20.78-33.22-48-45.28-81q-9.45,13.59-18.83,27.48C245.79-66.53,283.4-18.61,314.34,7a199.4,199.4,0,0,0,43.93,27.54c-.84,1-1.7,1.86-2.56,2.78A202.73,202.73,0,0,1,312.13,9.87,194.21,194.21,0,0,1,263.47-50.2c-14.33-27.44-22.68-59.13-24.89-94.29-15.59,23.17-31,46.87-46.15,70.76,0,.07,0,.15.07.23C203.54-5.39,239.1,38,267,62.32a232.19,232.19,0,0,0,26.39,19.92c-1.2.65-2.4,1.3-3.58,2a235,235,0,0,1-25.1-19.08C236.84,40.8,201.47-2.12,189.58-69.22q-14.34,22.68-28.27,45.48c-7.47,48.43,11.2,90.89,55.53,126.17a239.22,239.22,0,0,0,21.82,15.37c-.83.88-1.65,1.78-2.46,2.69a233.44,233.44,0,0,1-21.64-15.26c-20-15.9-35.09-33.66-44.89-52.8a122.38,122.38,0,0,1-12.94-68.66c-22.54,37-44.18,73.86-64.46,109.33,48.3,58.23,83.75,81.41,105,90.59.82.35,1.63.7,2.43,1-.54,1.22-1.1,2.47-1.63,3.7l-1.74-.72c-30.93-13.11-67.62-44.49-106.23-90.81-9.38,16.44-18.49,32.58-27.24,48.29,30.48,58.65,67,84.34,92.33,95.57a128.48,128.48,0,0,0,12.68,4.87c-.71,1-1.44,2-2.2,3.08-3.81-1.28-7.81-2.82-12-4.66C128.17,232.69,91.52,207,60.78,149q-10.39,18.67-20.12,36.46c19.34,54,46,82.48,65,96.84a119.55,119.55,0,0,0,17.35,11c-1.17,1-2.34,1.87-3.49,2.77a126.64,126.64,0,0,1-16.36-10.56c-19-14.38-45.5-42.52-65.06-95.28q-2.53,4.65-5,9.24-11.34,20.87-22,40.93c2.81,34.41,24.55,58.22,42.4,72.19a156.28,156.28,0,0,0,16.44,11.25c-1.47.56-2.91,1.09-4.33,1.61a164.3,164.3,0,0,1-14.3-10C33.71,301.74,12.57,278.86,8,246-.11,261.19-7.89,276-15.33,290.19-5.68,321.28,8,339.84,19.42,350.67c-.83,1.08-1.63,2.24-2.41,3.47-11.43-10.69-25-28.8-35-58.87-10.46,20.08-20.25,39.11-29.26,56.79,1.61,18.29,28.1,35.62,49.09,46.56-.35,1.21-.7,2.4-1.09,3.57-20-10.33-45.28-26.63-50.67-44.88q-4.82,9.45-9.3,18.35c7.67,29.61,28.74,47.95,44.26,57.83-.82,1.13-1.66,2.21-2.53,3.26C-20.18,435-23,433-26,430.78c-12.47-9.52-28.41-25.69-35.92-49.73Q-69.08,395.33-75.37,408c3.23,21.71,24.8,38.21,38.33,46.57-1.15.76-2.29,1.49-3.46,2.18-13.09-8.26-32.15-23.31-37.48-43.49-11.16,22.52-20,40.58-25.92,53a36.12,36.12,0,0,1-3.77-1.53c3.43-7.11,7.79-16.12,13-26.79-16.74,4.92-28.9,1.63-36.52-2.41a32,32,0,0,1,.08-4.47c7,4.31,19.83,8.61,38.92,1.83C-86.1,420.49-79,406.16-71,390.15c-14.84,7.7-33.9,4.76-45.48,1.72.58-1.06,1.15-2.13,1.76-3.22h0c12.43,3.18,33,6,46.82-4.71q2.25-4.51,4.61-9.17a3.29,3.29,0,0,1,.21-.42c9.38-18.62,19.84-39.12,31.2-61.11-15.34,8.61-29.55,5.78-39.68,1,.52-1.1,1-2.19,1.52-3.27,14.48,6.85,28.41,5.43,41.49-4.17q4.5-8.71,9.2-17.69s0-.09.06-.13q7.4-14.14,15.22-28.95a86.38,86.38,0,0,1-52.75,6.19c.14-1.4.25-2.78.34-4.14,14.32,3,34,3.13,55.57-8.05q13-24.5,27-50.4C-.25,221.24-37.34,223.76-60.46,223c-.24-1.16-.47-2.33-.72-3.51,24.1.81,65.47-1.93,91.35-23.35q7.95-14.62,16.41-30c-57.1,18.48-94,9.39-113.27.35.06-1.42.14-2.89.24-4.35,18.47,9.14,56,19.25,115.88-1.18q9.49-17.15,19.51-35c-45.39,18.59-85.23,10.85-111,.78a165.75,165.75,0,0,1-16.79-7.64c.37-1.35.75-2.69,1.13-4a161.74,161.74,0,0,0,17.31,7.93c26,10.12,66.56,17.78,112.65-2.87q7.67-13.6,15.62-27.52a1.93,1.93,0,0,1,.42-.75Q92.77,84,97.39,76c-39,20.34-72.73,11.73-94.62.49A137.43,137.43,0,0,1-28.86,53.8l2-3.09A135,135,0,0,0,4.56,73.36c32,16.4,64.37,15.27,96.28-3.35q10.23-17.69,20.82-35.67c-38.11,16.27-72,6.87-94.11-4.3A153.58,153.58,0,0,1,.21,12.29C1,11.16,1.75,10,2.52,8.89a150.93,150.93,0,0,0,27,17.62c32.42,16.3,64.61,16.9,95.71,1.78Q133.5,14.34,142,.26C97.57,6.42,61-8,37.86-21.39c-4.92-2.86-9.43-5.76-13.53-8.62.55-1.27,1.09-2.54,1.61-3.85,4.25,3,9,6.07,14.12,9.05,23.11,13.4,60,27.75,104.6,20.57,19.66-32.58,40.07-65.4,60.93-97.67-17.46,12-37.57,19.21-59.93,21.37-20.8,2-43.54-.29-67.63-6.82a278,278,0,0,1-36.41-12.79c.22-1.2.44-2.4.67-3.62a273.28,273.28,0,0,0,36.81,13c36.9,10,89.7,14.64,132.13-19.82q9.63-14.8,19.38-29.39c-65.07,10.67-114.72-3.32-145.15-17.15A216.83,216.83,0,0,1,59-171.43c.41-1.17.84-2.34,1.28-3.5a211.17,211.17,0,0,0,26.85,14.57C117.67-146.54,167.71-132.56,233.42-144.09Z"/></svg>