<svg xmlns="http://www.w3.org/2000/svg" viewBox="0 0 376.64 374.17"><defs><style>.cls-1{fill:none;}.cls-2{fill:#f0f8f7;}.cls-2,.cls-3{fill-rule:evenodd;}.cls-3{fill:#a7d6f5;fill-opacity:0.2;opacity:0.5;isolation:isolate;}</style></defs><g id="Calque_2" data-name="Calque 2"><g id="Calque_1-2" data-name="Calque 1"><path class="cls-1" d="M.09.07H0L0,0l0,0"/><path class="cls-2" d="M376.64.07c-.46.81-.93,1.62-1.42,2.43a162.79,162.79,0,0,1-18.11,24.64h0c-.84,1-1.7,1.88-2.56,2.81-19.35,20.73-41.6,33.92-62.39,45.32h0c-1.19.66-2.4,1.31-3.57,2h0c-20.08,10.92-38.49,20.45-51.2,33.91-.84.89-1.65,1.8-2.46,2.73s-1.47,1.78-2.18,2.69c-16.08,21-25.29,41.57-34.23,62.29,0,0,0,0,0,0-.53,1.23-1.08,2.49-1.6,3.73,0,0,0,0,0,0-8.22,19-16.55,38.21-30.12,57.88,0,0,0,0,0,0-.7,1-1.43,2.06-2.19,3.1,0,0,0,0,0,0A232.82,232.82,0,0,1,126,285.16q-2.16,1.84-4.25,3.55h0c-1.17,1-2.33,1.88-3.49,2.78h0a181.29,181.29,0,0,1-49.7,28h0c-1.46.55-2.91,1.09-4.32,1.6h0c-19.94,7.22-35,10.62-46.13,25.47h0c-.84,1.1-1.63,2.26-2.41,3.51h0c-3.84,6.08-7.16,13.84-10,24V.07Z"/><path class="cls-3" d="M18.08,346.61l0,0c-.84,1.1-1.63,2.28-2.42,3.52l0,0a105.24,105.24,0,0,1-10-10.94v-6.92A105.83,105.83,0,0,0,18.08,346.61Z"/><path class="cls-3" d="M.09.07H0L0,0Z"/><path class="cls-3" d="M198.49,178.92c-.53,1.24-1.09,2.51-1.62,3.75h0l-1.72-.73c-31.09-13.39-68-45.32-106.9-92.41q-14,25-27.18,48.88c30.78,59.56,67.5,85.72,93,97.2a130.53,130.53,0,0,0,12.71,5h0c-.7,1-1.44,2.07-2.2,3.12h0c-3.81-1.32-7.82-2.87-12-4.76C126.84,227.35,90,201.2,59,142.23q-10.38,18.92-20.07,36.91c19.58,54.85,46.39,83.78,65.48,98.4a120.15,120.15,0,0,0,17.42,11.18l0,0c-1.17,1-2.34,1.89-3.5,2.79l0,0a127.08,127.08,0,0,1-16.42-10.74C82.75,266.13,56.07,237.52,36.27,184c-1.69,3.14-3.35,6.26-5,9.35q-11.31,21.12-22,41.44c2.94,34.9,24.83,59.11,42.78,73.33a161.2,161.2,0,0,0,16.5,11.44l0,0c-1.47.56-2.92,1.1-4.34,1.62l-.05,0A165.85,165.85,0,0,1,49.88,311C32.28,297.07,11,273.8,6.26,240.49l-.59,1.13v-8.78q9.09-17.31,18.68-35.26a94.71,94.71,0,0,1-18.68,9.6v-3.91A84.43,84.43,0,0,0,28.39,190q7.92-14.81,16.36-30.34a224.48,224.48,0,0,1-39.08,9.11v-4.12A224.75,224.75,0,0,0,47.6,154.42Q57.07,137.07,67.07,119a145.48,145.48,0,0,1-61.4,11.17v-4.1a142.27,142.27,0,0,0,64.64-12.93Q78,99.36,85.9,85.27a1.93,1.93,0,0,1,.42-.75q4.52-8,9.13-16.15C59.34,87.34,27.63,81.2,5.67,71.1v-4c31,15,62.38,13.34,93.23-4.79q10.2-17.88,20.77-36.1c-38.19,16.38-72.21,6.74-94.45-4.65a153.36,153.36,0,0,1-19.55-12V4.47A150.74,150.74,0,0,0,27.19,18c32.58,16.63,64.88,17.34,96,2.11q5.82-10,11.74-20h4.81c-17.15,29-33.69,57.73-49.41,85.63,48.65,59.19,84.3,82.81,105.68,92.18l2.41,1Z"/><path class="cls-3" d="M237.34,111.18h0c-.84.89-1.65,1.81-2.46,2.73a0,0,0,0,1,0,0,235.25,235.25,0,0,1-21.76-15.53C193,82.19,177.8,64.13,167.9,44.7A124.72,124.72,0,0,1,154.75.07h3.59C161.88,35.81,181,67.83,215.4,95.55A235.7,235.7,0,0,0,237.34,111.18Z"/><path class="cls-3" d="M292.13,75.29l0,0-3.59,2s0,0,0,0a238.47,238.47,0,0,1-25.23-19.41A232.66,232.66,0,0,1,216,.07h4.2a229.21,229.21,0,0,0,45.45,55A235.68,235.68,0,0,0,292.13,75.29Z"/><path class="cls-3" d="M314.12.07a201.75,201.75,0,0,0,43,27.08c-.84,1-1.7,1.88-2.56,2.81A205.27,205.27,0,0,1,310.72,2L308.46.07Z"/><path class="cls-1" d="M.05,0,0,0,0,.07H.09"/><path class="cls-1" d="M.09.07H0L0,0l0,0"/><path class="cls-1" d="M.09.07H0L0,0l0,0"/></g></g></svg>