<svg id="Calque_1" data-name="Calque 1" xmlns="http://www.w3.org/2000/svg" viewBox="0 0 376.64 374.17"><defs><style>.cls-1{fill:#faf2e4;}.cls-1,.cls-2{fill-rule:evenodd;}.cls-2{fill:#edad27;fill-opacity:0.22;opacity:0.5;isolation:isolate;}</style></defs><path class="cls-1" d="M118.7-256.77q4.41-1.86,8.92-3.27c1.22-.38,2.43-.73,3.66-1.07a104.48,104.48,0,0,1,77.78,9.45l110.17,60.77A138.43,138.43,0,0,1,390.85-59.76c-.09,1.17-.18,2.35-.3,3.53A137.53,137.53,0,0,1,371,1.94a163,163,0,0,1-18.13,24.4c-.84.94-1.7,1.86-2.56,2.77C331,49.63,308.76,62.71,288,74c-1.2.65-2.4,1.3-3.59,2-20,10.84-38.43,20.3-51.14,33.61-.84.88-1.65,1.78-2.46,2.7s-1.47,1.76-2.18,2.66c-16.09,20.73-25.33,41.08-34.3,61.53-.54,1.23-1.1,2.48-1.63,3.71-8.25,18.8-16.61,37.74-30.2,57.2l-2.2,3.07a231.88,231.88,0,0,1-38.5,41.05c-1.43,1.22-2.85,2.39-4.24,3.52-1.17.95-2.34,1.87-3.49,2.76a182.48,182.48,0,0,1-49.63,27.78c-1.46.55-2.91,1.09-4.33,1.6-19.9,7.18-35,10.58-46.08,25.27-.84,1.08-1.63,2.25-2.41,3.48-5.23,8.16-9.51,19.38-12.94,35.52-.65,3.09-1.4,6.08-2.22,9-.35,1.21-.7,2.41-1.09,3.57a105,105,0,0,1-15.74,31.18c-.83,1.12-1.67,2.2-2.54,3.25a87.75,87.75,0,0,1-19.53,17.86c-1.14.76-2.29,1.49-3.45,2.18-22.67,13.56-48,14.76-63.41,9.48a31.64,31.64,0,0,1-3.77-1.53c-.53-.24-1-.5-1.52-.76-14.56-7.83-21.45-16.65-22-28.44a30.33,30.33,0,0,1,.09-4.47c.83-10.44,6-23.13,14.62-39.15.57-1.06,1.15-2.13,1.76-3.22h0c6.46-11.67,14.68-25.06,24.36-40.59A339.65,339.65,0,0,0-77,306.05c.52-1.1,1-2.19,1.52-3.26C-67.32,285-63.49,270.67-62.2,258q.21-2.1.33-4.14c.88-14.19-1.37-26.35-4-39.08-.23-1.16-.47-2.34-.71-3.52-3.16-15.14-6.48-31.36-5.51-53,.06-1.42.14-2.89.24-4.36.4-5.68,1.09-11.75,2.16-18.24a239.17,239.17,0,0,1,5.38-24.8c.37-1.35.75-2.69,1.14-4,7.26-24.71,17.61-44,28.91-61.33.68-1,1.35-2.08,2-3.1C-23.37,29.13-14,16.88-5.15,4-4.37,2.9-3.6,1.75-2.83.63A237.3,237.3,0,0,0,19-38.26c.55-1.27,1.09-2.54,1.61-3.85.36-.85.7-1.7,1-2.56,6.34-16.25,10.14-39,14.67-63.7.22-1.21.44-2.41.67-3.63,4.1-22.16,8.92-45.76,16.74-67.65.42-1.17.85-2.34,1.29-3.5C67-215.06,85.78-242.93,118.7-256.77Z"/><path class="cls-2" d="M228.05-152.34q16.44-24.51,33.1-48.15c-19.11,7-38.11,7.94-56.55,2.81-16.34-4.55-32.29-13.86-47.37-27.7a200.86,200.86,0,0,1-29.6-34.68c1.22-.38,2.43-.73,3.66-1.07A193.86,193.86,0,0,0,159.7-228c33.05,30.27,68.45,37.73,105.22,22.2q3.84-5.43,7.71-10.8l3.58,2q-9.18,12.72-18.28,25.78c27.54,77,67.06,107.74,95.36,120a110,110,0,0,0,37.59,9.1c-.09,1.17-.18,2.35-.3,3.53a112.85,112.85,0,0,1-38.76-9.33c-18.72-8.13-35.93-21.13-51.14-38.69-18-20.78-33.22-48-45.28-81q-9.45,13.59-18.83,27.48C240.42-74.78,278-26.86,309-1.25A198.7,198.7,0,0,0,352.9,26.28c-.84.95-1.7,1.87-2.56,2.78A202,202,0,0,1,306.76,1.62,194.24,194.24,0,0,1,258.1-58.45c-14.33-27.44-22.68-59.14-24.89-94.3-15.59,23.18-31,46.88-46.15,70.76a.33.33,0,0,0,.07.24c11,68.09,46.6,111.45,74.5,135.82A231.14,231.14,0,0,0,288,74l-3.58,2a231.33,231.33,0,0,1-25.1-19.08C231.47,32.55,196.1-10.37,184.21-77.47Q169.87-54.79,155.94-32c-7.47,48.44,11.2,90.9,55.53,126.18a234.59,234.59,0,0,0,21.82,15.36q-1.24,1.32-2.46,2.7A232.89,232.89,0,0,1,209.19,97c-20-15.9-35.09-33.67-44.89-52.8a122.32,122.32,0,0,1-12.94-68.66c-22.54,37-44.18,73.82-64.46,109.33,48.3,58.23,83.75,81.41,105,90.59.82.35,1.63.69,2.43,1-.54,1.23-1.1,2.48-1.63,3.71l-1.74-.73c-30.9-13.08-67.59-44.48-106.2-90.8q-14.07,24.66-27.24,48.3c30.48,58.65,67,84.33,92.33,95.57a133,133,0,0,0,12.68,4.85l-2.2,3.07c-3.81-1.28-7.81-2.81-12-4.66-25.54-11.33-62.19-37-92.93-95.07Q45,159.34,35.29,177.16c19.34,54,46,82.48,65,96.84a118.71,118.71,0,0,0,17.35,11c-1.17.95-2.34,1.87-3.49,2.76A125,125,0,0,1,97.79,277.2c-19-14.38-45.5-42.51-65.06-95.27l-5,9.23Q16.39,212,5.73,232.1c2.71,34.41,24.45,58.24,42.3,72.24a156.6,156.6,0,0,0,16.44,11.2c-1.47.55-2.91,1.09-4.33,1.6a159.16,159.16,0,0,1-14.3-10C28.34,293.49,7.2,270.61,2.63,237.77c-8.11,15.16-15.89,29.93-23.33,44.17C-11,313,2.63,331.58,14.05,342.41c-.83,1.09-1.63,2.25-2.41,3.48-11.43-10.69-25-28.81-35-58.87-10.46,20.07-20.25,39.11-29.26,56.79,1.61,18.29,28.1,35.61,49.09,46.55-.35,1.21-.7,2.41-1.09,3.57-20-10.33-45.28-26.63-50.67-44.88q-4.83,9.45-9.3,18.36c7.67,29.61,28.74,47.94,44.26,57.83-.82,1.12-1.66,2.21-2.53,3.25-2.71-1.74-5.58-3.72-8.51-6-12.47-9.53-28.41-25.7-35.92-49.74q-7.19,14.31-13.47,26.94c3.26,21.75,24.83,38.26,38.4,46.65-1.15.76-2.29,1.49-3.46,2.18C-58.92,440.27-78,425.21-83.31,405c-11.16,22.52-20,40.58-25.92,53a33.35,33.35,0,0,1-3.77-1.52c3.43-7.12,7.79-16.12,13-26.79-16.74,4.91-28.9,1.63-36.52-2.41a31.91,31.91,0,0,1,.08-4.48c7,4.31,19.83,8.61,38.92,1.83,6-12.43,13.15-26.76,21.15-42.78-14.84,7.71-33.9,4.76-45.48,1.72.58-1,1.15-2.12,1.76-3.21h0c12.43,3.18,33,6,46.82-4.72q2.25-4.5,4.61-9.17a4,4,0,0,1,.21-.41C-59.07,347.47-48.61,327-37.25,305c-15.34,8.61-29.55,5.78-39.68,1,.52-1.1,1-2.19,1.52-3.27,14.48,6.84,28.41,5.43,41.49-4.18q4.5-8.7,9.2-17.68c4.7-9,0-.1.06-.13q7.4-14.16,15.22-29a86.45,86.45,0,0,1-52.75,6.2c.14-1.4.25-2.78.34-4.14,14.32,3,34,3.13,55.57-8.06,8.65-16.32,17.67-33.17,27-50.4-26.37,17.6-63.46,20.11-86.58,19.39-.24-1.16-.47-2.34-.72-3.52,24.1.82,65.47-1.93,91.35-23.34q8-14.64,16.41-30c-57.1,18.47-94,9.38-113.27.34.06-1.42.14-2.88.24-4.35,18.47,9.14,56,19.25,115.88-1.18q9.48-17.13,19.51-35c-45.39,18.59-85.23,10.85-111,.78a163.68,163.68,0,0,1-16.79-7.64c.37-1.35.75-2.69,1.13-4a163.9,163.9,0,0,0,17.31,7.94c26,10.11,66.56,17.78,112.65-2.88q7.65-13.53,15.61-27.42a1.86,1.86,0,0,1,.42-.75L92,67.7C53,88,19.29,79.43-2.6,68.18A137.81,137.81,0,0,1-34.23,45.55l2-3.1A134.71,134.71,0,0,0-.81,65.11c32,16.4,64.37,15.27,96.28-3.36q10.23-17.67,20.82-35.67c-38.11,16.28-72,6.87-94.11-4.29A153.54,153.54,0,0,1-5.16,4C-4.37,2.9-3.62,1.76-2.85.63a149.87,149.87,0,0,0,27,17.62C56.57,34.55,88.76,35.16,119.86,20q8.27-14,16.72-28c-44.38,6.12-81-8.27-104.09-21.7-4.92-2.86-9.43-5.76-13.53-8.62.55-1.26,1.09-2.53,1.61-3.85,4.25,3,9,6.08,14.12,9.05C57.8-19.66,94.63-5.31,139.29-12.49,159-45.07,179.36-77.9,200.22-110.16c-17.46,12-37.57,19.21-59.93,21.37-20.8,2-43.54-.29-67.63-6.82A278.61,278.61,0,0,1,36.25-108.4c.22-1.2.44-2.41.67-3.62A273.48,273.48,0,0,0,73.73-99c36.9,10,89.7,14.64,132.13-19.82q9.63-14.79,19.38-29.39c-65.07,10.67-114.72-3.33-145.15-17.16a216.08,216.08,0,0,1-26.46-14.27c.41-1.17.84-2.35,1.28-3.51a212.29,212.29,0,0,0,26.85,14.58C112.3-154.79,162.34-140.81,228.05-152.34Z"/></svg>