<svg id="Calque_1" data-name="Calque 1" xmlns="http://www.w3.org/2000/svg" viewBox="0 0 1920 737"><defs><style>.cls-1{fill:#f4ffdf;}.cls-1,.cls-2{fill-rule:evenodd;}.cls-2{fill:#a6d7f7;fill-opacity:0.2;opacity:0.2;isolation:isolate;}</style></defs><path class="cls-1" d="M8,696.13a205.46,205.46,0,0,1-18.18-10c-2.31-1.43-4.56-2.89-6.78-4.4C-64,649.87-87.7,602.77-83,551.14L-61.54,312C-51.95,205.25,44.54,105.27,175.34,51.4c2.95-1.21,5.93-2.42,8.93-3.59a552.86,552.86,0,0,1,163.86-36.6,586,586,0,0,1,80,0c3.27.21,6.48.48,9.69.76,72.05,6.25,129.33,25.46,180.62,44.45,3,1.09,5.92,2.21,8.87,3.27,49.32,18.44,93.39,35.9,140.33,40.2,3.1.28,6.23.5,9.38.69,3,.13,6,.24,9,.3,68.87,1,128.93-8.09,189-17.73,3.6-.58,7.28-1.15,10.88-1.75,55.18-8.86,110.82-17.68,173.71-19.07,3.29-.1,6.61-.12,10-.15a777.22,777.22,0,0,1,143.93,12.2q6.91,1.2,13.42,2.5c3.66.7,7.23,1.46,10.72,2.21,57.82,12.35,95.23,28.9,124.41,44.54,3,1.62,6,3.24,8.86,4.83,40.27,22.4,65.77,41.69,114.26,42,3.59.05,7.32-.06,11.21-.27,25.84-1.3,58.05-7.59,101.22-20.81q12.39-3.79,24.34-6.85c3.34-.86,6.66-1.68,9.92-2.42,34.64-8.17,66-11.72,94.14-11.71,3.68,0,7.27,0,10.81.17a274.75,274.75,0,0,1,65.74,9.71c3.16.89,6.25,1.82,9.26,2.82,59,19.34,90.93,57,95.69,86.74a43.65,43.65,0,0,1,.61,7.55c0,1.09,0,2.15-.11,3.19-2.37,31.39-15.92,52.11-44,66.44-3.42,1.77-7.09,3.44-11,5-26.34,10.7-63.06,17.35-112,22.38-3.23.33-6.5.66-9.84,1h0c-35.79,3.44-77.77,6.14-126.63,9-39.44,2.3-73.68,5.63-103.71,9.79-3.26.46-6.49.94-9.68,1.41-52.48,7.84-91.8,18.42-124,30.93q-5.34,2.08-10.45,4.23c-35.51,14.91-62.51,32.32-90.47,50.93-2.56,1.7-5.15,3.41-7.74,5.14-33.2,22.21-68.86,45.93-122.5,69.2-3.53,1.53-7.19,3.09-10.87,4.61-14.27,5.89-29.84,11.8-46.84,17.58-23.19,7.93-45.34,14.57-66.49,20.16-3.71,1-7.4,1.93-11,2.83-68.44,17.15-127.2,23.33-182.3,25.81l-9.85.42c-42.53,1.63-83,1.27-124.41,2.39-3.66.09-7.32.23-10.94.34-38.2,1.28-77.31,4.07-119.56,11-3.71.61-7.41,1.23-11.2,1.94-2.47.42-4.92.87-7.41,1.35-46.77,8.86-106.39,29.07-171.74,50.44L453.73,656C395.14,675.09,332.22,694.72,270,707.78c-3.31.7-6.67,1.39-10,2C168.63,727.88,79.34,730.93,8,696.13Z"/><path class="cls-2" d="M136.92,408c-52.29,1.86-104.06,3.3-155,4.26,38.86,21.4,63,49.53,71.65,83.8,7.65,30.36,3.29,65.57-13.06,104.64C26.94,633.11,7.39,663-9.91,686c-2.31-1.44-4.56-2.89-6.78-4.4,16.6-22.27,35.1-50.81,48-81.68C67,514.37,44.55,451.34-35.35,412.56q-17.64.29-35.1.51l.69-7.77q41.45-.45,83.66-1.43C169.52,273.25,199,177.19,196.37,119.58,195,91,186.15,68.34,175.4,51.32c2.95-1.21,5.94-2.42,8.93-3.59,11.2,17.68,20.39,41.05,21.74,70.34,1.75,38.11-10.13,79.49-35.37,123-29.89,51.53-78.69,106.16-145,162.5q43.88-1,88.41-2.51c197.28-101,270.7-213.81,297.5-290.77,13.78-39.47,17-73.8,16.61-99.17,3.27.21,6.48.48,9.69.76.21,25.57-3.26,59.62-16.78,98.52-17.43,50.16-47.82,98.51-90.3,143.73C280.5,307.64,213,356.83,130,400.53c74.23-2.57,149.56-6,225-10.09.15-.12.3-.26.48-.38C508.47,295,573.11,190.6,600.38,119.72a365.56,365.56,0,0,0,18.18-63.43c3,1.09,5.92,2.2,8.88,3.27a371.49,371.49,0,0,1-17.63,60.49c-27.2,70.76-91,174.39-240.56,269.59q71.58-3.93,143-8.62C638.6,337,720.44,259.6,755.42,150.94a358.74,358.74,0,0,0,12.34-51.19c3.11.27,6.23.5,9.38.69a355.57,355.57,0,0,1-12.3,50.8,334.91,334.91,0,0,1-76.94,129.6c-39.32,41.27-90.43,74.36-152.14,98.61,115.86-7.74,230.25-16.67,339.77-26.13,86.24-141.06,102-222.19,99.9-265.45-.09-1.67-.18-3.32-.32-4.91,3.6-.57,7.28-1.15,10.88-1.75.09,1.15.16,2.33.23,3.51,3.59,62.63-30.68,155.06-99.05,267.57,50.73-4.41,100.41-8.9,148.68-13.44,107.66-114.13,128.27-199.76,126.55-251.63a168.07,168.07,0,0,0-2.69-25.09c3.29-.09,6.61-.12,10-.14a176.61,176.61,0,0,1,2.41,23.79c1.73,52.29-18.71,138.12-124.65,252q57.35-5.42,111.72-10.84c109.22-91.7,147.88-165.28,161-210.95a173.71,173.71,0,0,0,6.85-39.3c3.66.7,7.23,1.45,10.72,2.2a185.79,185.79,0,0,1-6.93,37.29c-13.19,45.72-51.23,118.74-157.1,209.32l28.21-2.85q63.74-6.48,124.8-13c80.45-43.77,113.43-104.53,127-148a237,237,0,0,0,8.51-38.21c3,1.62,6,3.24,8.86,4.83a249.13,249.13,0,0,1-7.87,33.44C1450,204.28,1418.63,263,1344.06,307.76c46.12-4.95,91-9.9,134.1-14.78,64.53-50.48,94-92.83,107.23-122.81,3.59.05,7.32-.06,11.21-.26-12.89,29.85-41.36,71.53-103.06,121.3,60.82-6.9,118.32-13.66,171.64-20,42.63-23.46,54.4-84.08,57-128.91,3.34-.86,6.65-1.69,9.92-2.42-2.22,42.57-12.86,100.2-51,129.42q28.5-3.45,55.29-6.74c63.22-45.74,83.65-99.19,89.89-134.39,3.69,0,7.28,0,10.82.16a192,192,0,0,1-4.74,19.94c-8.87,30.11-29.92,73.17-79.77,112.28q43-5.33,81-10.15c49.09-29.86,64.5-82,69.31-112.36,3.16.88,6.26,1.81,9.26,2.81-5.06,29.61-19.82,76.2-62.78,107.53,67.57-8.64,121.57-15.81,158.52-20.83a44.66,44.66,0,0,1,.61,7.55c-21.23,2.88-48.13,6.49-80.08,10.66,31.14,20.12,37.09,42.6,36,59-3.42,1.77-7.09,3.44-11,5,2.44-15.73-1.78-40.37-40.15-62-37,4.83-80,10.34-128.13,16.35,35.75,14,50.43,46.71,56.32,68-3.23.32-6.49.66-9.84,1h0c-6.52-22.78-23.23-57.61-65.14-66.65q-13.53,1.69-27.58,3.41a10.42,10.42,0,0,1-1.25.16c-56,6.92-117.88,14.31-184.38,22,38.52,13.73,47.93,38.84,48,59.88l-9.69,1.41c0-30.12-19.38-49.94-57.72-59q-26.34,3.06-53.55,6.1l-.39.06q-42.88,4.85-87.85,9.77c47.2,21.65,67.13,51.59,75.53,74.07-3.57,1.39-7,2.81-10.46,4.23-9.21-25.43-31.41-56-83.29-76.28-49.62,5.39-100.92,10.83-153.52,16.22,73,20.41,121.65,74.61,146.4,111-2.56,1.7-5.15,3.41-7.73,5.14-25.64-38-79.74-98.53-161.49-113.82q-44.68,4.54-91.69,9.12c110.39,66.68,130.59,133.9,130.69,173.89-3.52,1.53-7.19,3.1-10.86,4.62,1-38.9-17.38-108.24-135.71-177q-52.56,5.06-107.49,10.1c97.25,48.54,124.1,118.72,129.19,170a216.78,216.78,0,0,1,.67,34.6q-5.57,1.47-11,2.84a212.16,212.16,0,0,0-.54-35.73c-5.18-51.58-33.06-122.81-136.12-170q-41.85,3.8-84.82,7.51a7.84,7.84,0,0,1-2.3.21q-24.5,2.11-49.28,4.2C922.23,401.72,940,463.52,937.73,510.1c-1.45,29.72-10.82,56.57-18.91,74.68l-9.85.43c8-17.75,17.7-44.77,19.1-74.28,3.23-68-36.65-116.57-118.53-144.32q-54.7,4.53-110.61,8.85c83.27,40,99.22,102.89,97.44,149.74-.89,23.74-6.17,45.47-11.81,62.43-3.67.09-7.32.23-10.94.34,5.67-16.74,11-38.39,11.89-61.75,2.49-68.57-33-118.79-105.37-149.32q-43.42,3.27-87.34,6.4c65.86,61.23,72.76,134,66.67,185A282.62,282.62,0,0,1,654,599c-3.71.6-7.41,1.23-11.2,1.93a271.88,271.88,0,0,0,5.81-32.1c6.11-50.91-1.25-124.1-69.87-184.54-101.76,7.09-205,13.31-307.36,18.19,49.27,13.09,89.79,35.8,120.68,67.74,28.72,29.69,49.2,67.32,60.93,111.88a349.58,349.58,0,0,1,10.64,70.69l-9.57,3.13a345.14,345.14,0,0,0-10.66-71.52c-17.95-68.26-67.22-154.82-199.66-180.6q-47.06,2.13-93.69,3.86C250.6,495.55,273.5,588,274.74,650.68a296.45,296.45,0,0,1-4.38,57.05c-3.31.7-6.66,1.38-10,2a289.72,289.72,0,0,0,4.67-58C263.65,588.94,240.29,495.9,136.92,408Z"/></svg>