<svg id="Calque_1" data-name="Calque 1" xmlns="http://www.w3.org/2000/svg" viewBox="0 0 376.64 374.17"><defs><style>.cls-1{fill:#f6eeeb;}.cls-1,.cls-2{fill-rule:evenodd;}.cls-2{fill:#93691e;fill-opacity:0.3;opacity:0.19;isolation:isolate;}</style></defs><path class="cls-1" d="M119.29-249.21c2.95-1.25,5.92-2.33,8.93-3.27,1.22-.38,2.43-.74,3.66-1.07a104.43,104.43,0,0,1,77.78,9.47l110.17,60.74A138.43,138.43,0,0,1,391.45-52.21c-.09,1.17-.18,2.36-.3,3.53A137.49,137.49,0,0,1,371.61,9.49a161.57,161.57,0,0,1-18.13,24.35c-.84.95-1.7,1.86-2.56,2.78-19.34,20.51-41.56,33.6-62.32,44.9l-3.59,2c-20.05,10.84-38.44,20.3-51.14,33.61q-1.26,1.32-2.46,2.7c-.74.88-1.47,1.76-2.18,2.66-16.09,20.74-25.33,41.08-34.31,61.54-.54,1.22-1.09,2.47-1.62,3.7-8.25,18.81-16.62,37.74-30.21,57.2-.7,1-1.44,2-2.19,3.08a232.09,232.09,0,0,1-38.5,41c-1.43,1.23-2.85,2.4-4.24,3.52-1.17,1-2.34,1.87-3.49,2.76A182.43,182.43,0,0,1,65,323.07c-1.47.56-2.91,1.09-4.33,1.61-19.9,7.18-35,10.57-46.08,25.27-.84,1.08-1.63,2.24-2.42,3.47C7,361.58,2.71,372.81-.72,389c-.66,3.09-1.41,6.07-2.22,9-.35,1.21-.7,2.4-1.09,3.56a104.8,104.8,0,0,1-15.71,31.31c-.82,1.13-1.66,2.21-2.53,3.26a88.1,88.1,0,0,1-19.57,17.8c-1.14.76-2.29,1.5-3.46,2.18-22.66,13.56-48,14.76-63.41,9.48a37,37,0,0,1-3.77-1.52c-.52-.25-1-.5-1.51-.76-14.56-7.84-21.45-16.65-22-28.44a30.74,30.74,0,0,1,.09-4.48c.82-10.44,5.95-23.12,14.62-39.14.57-1.06,1.15-2.13,1.76-3.22h0c6.46-11.68,14.68-25.07,24.36-40.6a341.63,341.63,0,0,0,18.8-33.78c.52-1.1,1-2.19,1.52-3.27,8.12-17.75,11.95-32.12,13.24-44.76.14-1.4.24-2.78.33-4.14.88-14.19-1.37-26.35-4-39.07-.23-1.17-.47-2.34-.71-3.52-3.16-15.14-6.48-31.37-5.52-53,.07-1.42.14-2.89.25-4.35.4-5.68,1.09-11.76,2.16-18.24a241.69,241.69,0,0,1,5.38-24.81c.37-1.35.75-2.69,1.13-4,7.27-24.72,17.62-44,28.92-61.34l2-3.09c8.86-13.32,18.22-25.56,27.06-38.41C-3.77,10.45-3,9.31-2.24,8.18A236.55,236.55,0,0,0,19.57-30.71c.55-1.26,1.09-2.53,1.61-3.84.35-.85.69-1.7,1-2.57,6.34-16.24,10.13-39,14.67-63.7.22-1.2.44-2.41.67-3.62,4.1-22.16,8.92-45.76,16.74-67.66.41-1.16.84-2.34,1.28-3.5C67.6-207.51,86.38-235.38,119.29-249.21Z"/><path class="cls-2" d="M228.65-144.79q16.44-24.5,33.09-48.14c-19.1,7-38.1,7.94-56.54,2.8-16.34-4.55-32.29-13.86-47.37-27.7a200.9,200.9,0,0,1-29.6-34.67c1.22-.38,2.43-.74,3.66-1.07a195.18,195.18,0,0,0,28.4,33.12c33.05,30.26,68.46,37.72,105.23,22.2q3.86-5.43,7.71-10.8l3.58,2q-9.18,12.72-18.28,25.79c27.54,77,67.06,107.73,95.36,120a110,110,0,0,0,37.59,9.09c-.09,1.17-.18,2.36-.3,3.53A113,113,0,0,1,352.42-58c-18.72-8.11-35.94-21.1-51.14-38.65-18-20.78-33.22-48-45.28-81q-9.45,13.59-18.83,27.48C241-67.23,278.63-19.31,309.57,6.3A199,199,0,0,0,353.5,33.84c-.84.95-1.7,1.86-2.57,2.78A202.94,202.94,0,0,1,307.36,9.17,194.21,194.21,0,0,1,258.7-50.9C244.37-78.34,236-110,233.81-145.19c-15.59,23.17-31,46.87-46.15,70.76,0,.07.05.15.07.23,11,68.11,46.6,111.46,74.5,135.82a232.19,232.19,0,0,0,26.39,19.92c-1.2.65-2.4,1.3-3.59,2a237,237,0,0,1-25.1-19.08C232.07,40.1,196.7-2.82,184.81-69.92q-14.34,22.68-28.27,45.48c-7.47,48.43,11.2,90.89,55.53,126.17a237.84,237.84,0,0,0,21.82,15.37c-.84.88-1.65,1.78-2.46,2.69a232.11,232.11,0,0,1-21.64-15.26c-20-15.9-35.09-33.66-44.89-52.8A122.38,122.38,0,0,1,152-16.93c-22.54,37-44.18,73.86-64.46,109.33,48.29,58.23,83.74,81.41,105,90.59.83.35,1.64.7,2.44,1-.54,1.22-1.1,2.47-1.63,3.7-.57-.23-1.16-.47-1.74-.72C160.66,173.88,124,142.5,85.36,96.18,76,112.62,66.87,128.76,58.11,144.47c30.49,58.65,67,84.34,92.34,95.57a129.31,129.31,0,0,0,12.67,4.87c-.7,1-1.44,2-2.19,3.08-3.81-1.28-7.81-2.82-12-4.66C123.4,232,86.75,206.31,56,148.26q-10.4,18.68-20.12,36.46c19.34,54,46,82.48,65,96.84a119,119,0,0,0,17.35,11c-1.17,1-2.34,1.87-3.49,2.77a126.64,126.64,0,0,1-16.36-10.56c-19-14.38-45.5-42.52-65.07-95.28q-2.52,4.65-5,9.24-11.34,20.86-22,40.93c2.82,34.41,24.56,58.22,42.4,72.19a157.39,157.39,0,0,0,16.45,11.25c-1.47.56-2.92,1.09-4.33,1.61a164.3,164.3,0,0,1-14.3-10C28.94,301,7.79,278.16,3.19,245.33c-8.08,15.16-15.86,29.92-23.29,44.16,9.65,31.09,23.34,49.65,34.75,60.48-.84,1.08-1.63,2.24-2.41,3.47-11.44-10.69-25-28.8-35-58.87C-33.2,314.65-43,333.68-52,351.36-50.39,369.65-23.9,387-2.92,397.92q-.51,1.81-1.08,3.57c-20-10.33-45.28-26.63-50.68-44.88Q-59.48,366.06-64,375c7.67,29.61,28.74,48,44.26,57.83-.82,1.13-1.66,2.21-2.53,3.26-2.71-1.75-5.58-3.72-8.52-6-12.47-9.52-28.4-25.69-35.91-49.73q-7.18,14.28-13.48,26.94c3.23,21.71,24.81,38.21,38.34,46.57-1.15.76-2.3,1.49-3.46,2.18-13.09-8.26-32.15-23.31-37.48-43.49-11.17,22.52-20,40.58-25.92,53a35.25,35.25,0,0,1-3.77-1.53c3.42-7.11,7.79-16.12,13-26.79-16.73,4.92-28.89,1.63-36.51-2.41a32,32,0,0,1,.08-4.47c7,4.31,19.82,8.61,38.91,1.83,6.07-12.36,13.16-26.69,21.19-42.7-14.84,7.7-33.9,4.76-45.48,1.72.58-1.06,1.15-2.13,1.76-3.22h0c12.43,3.18,33,6,46.82-4.71q2.25-4.51,4.61-9.17a2.35,2.35,0,0,1,.21-.42C-58.44,355-48,334.52-36.62,312.53c-15.34,8.61-29.55,5.78-39.68,1,.51-1.1,1-2.19,1.51-3.27,14.48,6.85,28.42,5.43,41.5-4.17q4.48-8.72,9.2-17.69s0-.09.06-.13q7.4-14.15,15.22-28.95a86.38,86.38,0,0,1-52.75,6.19q.21-2.1.33-4.14c14.33,3,34.05,3.13,55.58-8q13-24.49,27-50.4C-5,220.54-42.11,223.06-65.23,222.33c-.24-1.16-.47-2.33-.72-3.51,24.1.81,65.47-1.93,91.35-23.35q8-14.62,16.4-30c-57.09,18.48-94,9.39-113.26.35.06-1.42.14-2.89.24-4.35,18.47,9.14,56,19.25,115.88-1.18q9.48-17.15,19.51-35c-45.39,18.59-85.23,10.85-111,.78a165.75,165.75,0,0,1-16.79-7.64c.37-1.35.75-2.69,1.13-4a161.74,161.74,0,0,0,17.31,7.93c26,10.12,66.56,17.78,112.64-2.87Q75.09,105.92,83,92a2.09,2.09,0,0,1,.43-.75q4.53-7.94,9.15-16C53.64,95.64,19.89,87-2,75.79A137.43,137.43,0,0,1-33.63,53.1l2-3.09A135,135,0,0,0-.21,72.66c32,16.4,64.37,15.27,96.28-3.35q10.23-17.69,20.82-35.67c-38.11,16.27-72,6.87-94.11-4.3A154.06,154.06,0,0,1-4.57,11.59c.79-1.13,1.55-2.28,2.32-3.4a150.93,150.93,0,0,0,27,17.62c32.42,16.3,64.61,16.9,95.71,1.78q8.27-13.95,16.72-28C92.8,5.72,56.23-8.68,33.09-22.09c-4.92-2.86-9.43-5.76-13.53-8.62.55-1.27,1.09-2.54,1.61-3.85,4.25,3,9,6.07,14.12,9.05,23.1,13.4,60,27.75,104.6,20.57,19.66-32.58,40.07-65.4,60.93-97.67-17.47,12-37.57,19.21-59.94,21.37-20.79,2-43.53-.29-67.62-6.82a277.44,277.44,0,0,1-36.41-12.79c.22-1.2.44-2.4.66-3.62a274.27,274.27,0,0,0,36.81,13c36.91,10,89.71,14.64,132.13-19.82q9.65-14.81,19.39-29.39C160.77-130,111.11-144,80.69-157.86a216.83,216.83,0,0,1-26.44-14.27c.41-1.17.84-2.34,1.28-3.5a211.17,211.17,0,0,0,26.85,14.57C112.9-147.24,162.94-133.26,228.65-144.79Z"/></svg>